<svg xmlns="http://www.w3.org/2000/svg" width="241" height="343" viewBox="0 0 241 343" version="1.1"><path d="M 61.973 53.277 C 50.307 57.254, 41.636 65.133, 36.234 76.664 C 33.518 82.461, 33.497 82.679, 32.979 109.500 C 32.491 134.788, 32.319 136.762, 30.273 140.624 C 26.699 147.370, 19.606 151.973, 12.750 151.994 C 11.182 151.999, 11 153.234, 11 163.868 L 11 175.737 15.007 176.274 C 21.391 177.130, 26.197 180.194, 29.500 185.511 L 32.500 190.341 33.008 215.421 L 33.516 240.500 36.693 247.223 C 42.641 259.810, 53.728 268.539, 66.886 270.995 C 69.849 271.548, 79.944 272, 89.321 272 C 104.325 272, 106.864 272.240, 110.500 274 C 114.844 276.103, 118.232 280.896, 119.452 286.666 C 121.158 294.728, 114.267 305.219, 106.451 306.462 C 96.146 308.101, 96.533 307.748, 96.206 315.784 L 95.912 323 152.849 323 C 216.102 323, 211.014 323.598, 210.986 316.168 C 210.959 308.909, 210.523 308.436, 202.756 307.234 C 198.852 306.630, 194.525 305.290, 193.141 304.256 C 182.888 296.601, 183.003 282.321, 193.381 274.562 C 195.857 272.711, 197.821 272.468, 212.570 272.183 L 229 271.865 229 260.433 L 229 249 156.250 248.967 C 116.237 248.949, 80.447 248.541, 76.716 248.060 C 68.704 247.027, 64.124 244.050, 60.769 237.692 C 58.710 233.790, 58.518 231.771, 57.994 208.500 C 57.369 180.756, 57.096 179.433, 50.478 172.108 C 48.434 169.845, 45.058 167.037, 42.976 165.866 L 39.190 163.738 43.816 160.207 C 49.964 155.514, 51.621 153.523, 54.811 147 C 57.460 141.582, 57.508 141.121, 58.050 116 C 58.410 99.281, 59.021 89.508, 59.824 87.619 C 63.845 78.167, 69.481 74.886, 82.452 74.447 C 87.428 74.278, 91.838 74.108, 92.250 74.070 C 92.662 74.031, 93 68.825, 93 62.500 L 93 51 80.750 51.026 C 70.756 51.047, 67.298 51.461, 61.973 53.277" stroke="none" fill="#0639a0" fill-rule="evenodd"/><path d="M 159.041 32.548 C 133.472 51.371, 120.807 80.542, 126.511 107.471 C 129.263 120.463, 135.785 131.363, 149.462 145.829 C 155.203 151.901, 156.528 153.980, 158.017 159.250 C 160.231 167.084, 155.144 175.242, 145.996 178.532 C 135.987 182.131, 122.660 176.193, 118.992 166.500 C 118.322 164.729, 117.883 157.558, 117.922 149 C 117.958 141.025, 117.576 133.856, 117.073 133.070 C 116.355 131.945, 114.522 133.226, 108.512 139.054 C 97.972 149.274, 93.023 159.078, 92.264 171.242 C 91.355 185.813, 95.690 197.630, 105.852 208.283 C 116.623 219.576, 131.057 225.881, 148.097 226.737 C 161.255 227.397, 170.821 225.479, 181.787 219.979 C 207.206 207.232, 220.117 180.402, 214.577 151.838 C 211.874 137.907, 205.828 127.665, 189.578 109.500 C 175.568 93.837, 170.373 86.513, 166.859 77.462 C 161.704 64.186, 161.990 51.420, 167.758 37.339 C 172.045 26.874, 169.013 25.208, 159.041 32.548" stroke="none" fill="#fb9313" fill-rule="evenodd"/></svg>