<svg xmlns="http://www.w3.org/2000/svg" width="1536" height="1024" viewBox="0 0 1536 1024" version="1.1"><path d="M 454.041 371.548 C 428.472 390.371, 415.807 419.542, 421.511 446.471 C 424.263 459.463, 430.785 470.363, 444.462 484.829 C 450.203 490.901, 451.528 492.980, 453.017 498.250 C 455.231 506.084, 450.144 514.242, 440.996 517.532 C 430.987 521.131, 417.660 515.193, 413.992 505.500 C 413.322 503.729, 412.883 496.558, 412.922 488 C 412.958 480.025, 412.576 472.856, 412.073 472.070 C 411.355 470.945, 409.522 472.226, 403.512 478.054 C 392.972 488.274, 388.023 498.078, 387.264 510.242 C 386.355 524.813, 390.690 536.630, 400.852 547.283 C 411.623 558.576, 426.057 564.881, 443.097 565.737 C 456.255 566.397, 465.821 564.479, 476.787 558.979 C 502.206 546.232, 515.117 519.402, 509.577 490.838 C 506.874 476.907, 500.828 466.665, 484.578 448.500 C 470.568 432.837, 465.373 425.513, 461.859 416.462 C 456.704 403.186, 456.990 390.420, 462.758 376.339 C 467.045 365.874, 464.013 364.208, 454.041 371.548 M 827.995 437.238 C 827.993 437.382, 827.969 465.175, 827.943 499 L 827.895 560.500 840.448 560.780 L 853 561.060 853 536.530 L 853 512 876.500 512 L 900 512 900 501 L 900 490 876.500 490 L 853 490 853 475 L 853 460 880.033 460 L 907.066 460 906.783 448.750 L 906.500 437.500 867.250 437.238 C 845.663 437.095, 827.998 437.095, 827.995 437.238 M 942.402 470.486 C 920.411 475.270, 907 492.695, 907 516.484 C 907 544.852, 925.768 563, 955.104 563 C 968.093 563, 978.478 559.288, 986.708 551.702 C 1002.251 537.374, 1006.332 514.203, 996.837 494.194 C 987.933 475.433, 965.191 465.528, 942.402 470.486 M 1052.903 470.013 C 1046.682 471.065, 1042.145 473.487, 1038.216 477.852 L 1034.933 481.500 1035.216 476.249 L 1035.500 470.999 1023.250 470.999 L 1011 471 1011 516 L 1011 561 1023.415 561 L 1035.831 561 1036.165 534.250 C 1036.495 507.882, 1036.536 507.436, 1039 503 C 1042.502 496.697, 1048.076 494, 1057.605 494 C 1063.231 494, 1064.917 493.657, 1065.393 492.418 C 1065.727 491.548, 1066 486.204, 1066 480.543 L 1066 470.250 1062.875 469.625 C 1059.382 468.926, 1059.309 468.929, 1052.903 470.013 M 1100.527 470.085 C 1068.982 474.830, 1054.229 518.105, 1074.846 545.412 C 1082.451 555.486, 1092.655 560.124, 1107.223 560.129 C 1116.861 560.133, 1122.136 558.526, 1129.237 553.425 L 1134.204 549.857 1133.852 558.754 C 1133.551 566.372, 1133.118 568.229, 1130.839 571.669 C 1127.269 577.061, 1122.253 579.344, 1113 579.789 C 1106.584 580.097, 1104.849 579.803, 1101 577.755 C 1097.460 575.872, 1096.187 574.469, 1095.031 571.181 L 1093.562 567 1082.781 567 L 1072 567 1072.001 570.750 C 1072.002 575.963, 1076.931 585.854, 1081.548 589.908 C 1089.842 597.190, 1102.296 600.643, 1116.532 599.606 C 1135.634 598.216, 1147.938 590.947, 1154.796 577 L 1157.500 571.500 1157.785 521.250 L 1158.070 471 1146.535 471 L 1135 471 1135 475 C 1135 477.200, 1134.771 479, 1134.491 479 C 1134.212 479, 1132.154 477.675, 1129.919 476.056 C 1122.488 470.674, 1111.481 468.438, 1100.527 470.085 M 1205.699 469.995 C 1197.208 471.095, 1186.204 476.874, 1180.426 483.266 C 1163.851 501.603, 1163.987 532.533, 1180.718 549.710 C 1190.576 559.831, 1201.076 563.554, 1217.494 562.751 C 1229.939 562.141, 1236.973 559.628, 1244.058 553.258 C 1249.286 548.557, 1254 542.133, 1254 539.709 C 1254 538.937, 1251.794 537.825, 1248.750 537.062 C 1245.862 536.338, 1241.577 535.106, 1239.226 534.325 L 1234.951 532.904 1232.259 536.104 C 1226.211 543.291, 1212.390 545.529, 1203.215 540.808 C 1198.165 538.209, 1193.698 532.140, 1192.502 526.250 L 1191.841 523 1223.807 523 L 1255.773 523 1256.402 518.750 C 1257.746 509.668, 1254.547 495.102, 1249.429 487 C 1241.387 474.270, 1224.218 467.594, 1205.699 469.995 M 1205 490.069 C 1201.442 491.557, 1197.131 495.888, 1194.908 500.210 C 1191.265 507.294, 1190.646 507.073, 1213.250 506.771 L 1233.500 506.500 1233.160 504 C 1232.521 499.303, 1229.690 494.823, 1225.684 492.172 C 1222.446 490.029, 1220.325 489.475, 1214.590 489.273 C 1210.691 489.136, 1206.375 489.495, 1205 490.069 M 944.500 492.357 C 940.529 494.184, 936.618 497.944, 934.352 502.113 C 932.913 504.760, 932.510 507.688, 932.505 515.521 C 932.501 524.311, 932.814 526.154, 935.055 530.513 C 938.886 537.966, 944.980 541.408, 954.434 541.460 C 960.754 541.495, 962.261 541.125, 966.522 538.491 C 973.755 534.021, 976.500 528.116, 976.500 517.027 C 976.500 509.741, 976.098 507.682, 973.739 502.879 C 969.657 494.566, 964.865 491.576, 955.086 491.238 C 950.229 491.070, 946.421 491.473, 944.500 492.357 M 1104.318 492.265 C 1099.398 494.174, 1096.060 497.627, 1093.293 503.671 C 1091.067 508.532, 1090.814 510.193, 1091.207 517.352 C 1092.009 531.952, 1098.123 539.031, 1110.618 539.827 C 1118.973 540.359, 1126.748 536.851, 1130.801 530.721 C 1133.308 526.929, 1133.500 525.883, 1133.500 515.995 C 1133.500 506.078, 1133.314 505.069, 1130.772 501.231 C 1125.511 493.284, 1112.798 488.976, 1104.318 492.265" stroke="none" fill="#fba111" fill-rule="evenodd"/><path d="M 356.973 392.277 C 345.307 396.254, 336.636 404.133, 331.234 415.664 C 328.518 421.461, 328.497 421.679, 327.979 448.500 C 327.491 473.788, 327.319 475.762, 325.273 479.624 C 321.699 486.370, 314.606 490.973, 307.750 490.994 C 306.182 490.999, 306 492.234, 306 502.868 L 306 514.737 310.007 515.274 C 316.391 516.130, 321.197 519.194, 324.500 524.511 L 327.500 529.341 328.008 554.421 L 328.516 579.500 331.693 586.223 C 337.641 598.810, 348.728 607.539, 361.886 609.995 C 364.849 610.548, 374.944 611, 384.321 611 C 399.325 611, 401.864 611.240, 405.500 613 C 409.844 615.103, 413.232 619.896, 414.452 625.666 C 416.158 633.728, 409.267 644.219, 401.451 645.462 C 391.146 647.101, 391.533 646.748, 391.206 654.784 L 390.912 662 447.849 662 C 511.102 662, 506.014 662.598, 505.986 655.168 C 505.959 647.909, 505.523 647.436, 497.756 646.234 C 493.852 645.630, 489.525 644.290, 488.141 643.256 C 477.888 635.601, 478.003 621.321, 488.381 613.562 C 490.857 611.711, 492.821 611.468, 507.570 611.183 L 524 610.865 524 599.433 L 524 588 451.250 587.967 C 411.238 587.949, 375.447 587.541, 371.716 587.060 C 363.704 586.027, 359.124 583.050, 355.769 576.692 C 353.710 572.790, 353.518 570.771, 352.994 547.500 C 352.369 519.756, 352.096 518.433, 345.478 511.108 C 343.434 508.845, 340.058 506.037, 337.976 504.866 L 334.190 502.738 338.816 499.207 C 344.964 494.514, 346.621 492.523, 349.811 486 C 352.460 480.582, 352.508 480.121, 353.050 455 C 353.410 438.281, 354.021 428.508, 354.824 426.619 C 358.845 417.167, 364.481 413.886, 377.452 413.447 C 382.428 413.278, 386.837 413.108, 387.250 413.070 C 387.663 413.031, 388 407.825, 388 401.500 L 388 390 375.750 390.026 C 365.756 390.047, 362.298 390.461, 356.973 392.277 M 748.457 434.863 C 744.111 437.514, 741.994 441.255, 742.035 446.215 C 742.103 454.445, 746.997 458.982, 755.816 458.993 C 763.674 459.003, 768.979 455.623, 771.076 449.271 C 772.658 444.478, 770.085 437.833, 765.564 435.040 C 761.234 432.364, 752.700 432.275, 748.457 434.863 M 581.148 437.028 C 565.843 439.254, 553.213 448.603, 548.529 461.171 C 546.260 467.260, 546.725 480.792, 549.391 486.244 C 554.242 496.164, 565.258 502.794, 588 509.483 C 608.629 515.550, 613.500 518.990, 613.500 527.493 C 613.500 532.406, 610.643 536.348, 605.500 538.531 C 597.434 541.955, 582.761 541.102, 576.807 536.863 C 575.122 535.663, 572.643 532.278, 571.298 529.341 L 568.853 524 556.288 524 L 543.722 524 544.249 529.813 C 545.249 540.842, 552.886 551.431, 563.720 556.811 C 573.346 561.592, 578.215 562.508, 593.500 562.416 C 605.240 562.345, 608.455 561.981, 613.419 560.161 C 624.675 556.035, 632.452 549.689, 637.244 540.722 C 639.174 537.110, 639.500 534.983, 639.500 526 C 639.500 516.413, 639.267 515.104, 636.821 510.942 C 630.407 500.032, 619.989 493.907, 597.105 487.590 C 576.989 482.038, 572.545 479.045, 572.545 471.052 C 572.545 463.277, 579.924 457.995, 590.770 458.006 C 601.754 458.016, 608.302 461.480, 611.640 469.045 L 613.385 473 625.563 473 L 637.742 473 636.889 468.435 C 632.693 445.975, 609.496 432.905, 581.148 437.028 M 650 498.999 L 650 561.060 662.665 560.780 L 675.329 560.500 675.097 547.360 L 674.864 534.220 679.401 529.111 L 683.938 524.003 685.219 526.389 C 685.924 527.702, 691.225 536.022, 697 544.879 L 707.500 560.983 722.372 560.992 C 736.908 561, 737.213 560.956, 735.872 559.055 C 735.117 557.985, 730.143 550.673, 724.818 542.805 C 719.493 534.937, 712.212 524.225, 708.638 519 L 702.140 509.500 704.896 506.500 C 706.411 504.850, 711.642 498.550, 716.520 492.500 C 721.398 486.450, 726.472 480.381, 727.795 479.013 C 729.119 477.645, 731.087 475.282, 732.169 473.763 L 734.136 471 719.318 471.072 L 704.500 471.145 690 489.554 L 675.500 507.963 675 472.731 L 674.500 437.500 662.250 437.219 L 650 436.938 650 498.999 M 785 499 L 785 561.062 797.250 560.781 L 809.500 560.500 809.500 499 L 809.500 437.500 797.250 437.219 L 785 436.938 785 499 M 744 516 L 744 561 756.500 561 L 769 561 769 516 L 769 471 756.500 471 L 744 471 744 516" stroke="none" fill="#06389f" fill-rule="evenodd"/></svg>